<svg width="116" height="87" viewBox="0 0 116 87" fill="none" xmlns="http://www.w3.org/2000/svg">
<path d="M1 85.583L31.5 6L34.9598 13.2124L48.5 1L51.5 13.2124L57.5 3L62.5 12L66 6.5L74 12L87.5 2L92 11.5L102.5 5.73785L104.5 12L109.5 9L115 6L85 85.583H1Z" fill="#D9D9D9" stroke="#D9D9D9" stroke-linejoin="round"/>
<path d="M31.5 6L34.9598 13.2124L48.5 1L51.5 13.2124L57.5 3L62.5 12L66 6.5L74 12L87.5 2L92 11.5L102.5 5.73785L104.5 12L109.5 9L115 6" stroke="#EEEEEE" stroke-linecap="round" stroke-linejoin="round"/>
<path d="M33 30H95" stroke="#373C4F" stroke-width="2" stroke-linecap="round" stroke-linejoin="round"/>
<path d="M27 44H89" stroke="#373C4F" stroke-width="2" stroke-linecap="round" stroke-linejoin="round"/>
<path d="M22 58H84" stroke="#373C4F" stroke-width="2" stroke-linecap="round" stroke-linejoin="round"/>
<path d="M17 72H79" stroke="#373C4F" stroke-width="2" stroke-linecap="round" stroke-linejoin="round"/>
</svg>
